<?xml version="1.0" encoding="UTF-8"?>
<svg id="Layer_1" xmlns="http://www.w3.org/2000/svg" version="1.1" viewBox="0 0 123 30">
  <!-- Generator: Adobe Illustrator 30.3.0, SVG Export Plug-In . SVG Version: 2.1.3 Build 182)  -->
  <defs>
    <style>
      .st0 {
        fill: #6a9247;
      }

      .st1 {
        fill: #a8aaac;
      }
    </style>
  </defs>
  <path class="st1" d="M37.4.6c-7.9,0-14.3,6.4-14.3,14.3s6.4,14.3,14.3,14.3,14.3-6.4,14.3-14.3S45.3.6,37.4.6ZM37.4,23.1c-4.5,0-8.1-3.6-8.1-8.1s3.6-8.1,8.1-8.1,8.1,3.6,8.1,8.1-3.6,8.1-8.1,8.1Z"/>
  <path class="st0" d="M40.6,14.9c0,1.8-1.4,3.2-3.2,3.2s-3.2-1.4-3.2-3.2,1.4-3.2,3.2-3.2,3.2,1.4,3.2,3.2"/>
  <g>
    <path class="st0" d="M51.7,5.5h6.4v19h-6.4V5.5Z"/>
    <path class="st0" d="M79.9,5.5v19h-5.3l-7.2-8.7v8.7h-6.2V5.5h5.3l7.2,8.7V5.5h6.2Z"/>
  </g>
  <path d="M13.2,18.3l-1.4,1.6v4.7h-6.3V5.5h6.3v6.9l6.2-6.9h7l-7.6,8.4,8,10.7h-7.4l-4.8-6.3Z"/>
  <path d="M82.8,16V5.5h6.4v10.3c0,2.9,1.1,4,2.9,4s2.9-1.1,2.9-4V5.5h6.3v10.5c0,5.7-3.4,9-9.3,9s-9.3-3.3-9.3-9Z"/>
  <path d="M103.1,23.1l2.1-4.7c1.8,1.1,4.2,1.7,6.3,1.7s2.5-.4,2.5-1c0-2.4-10.5-.5-10.5-7.6s3-6.4,8.8-6.4,5.2.5,7.2,1.7l-1.9,4.7c-1.9-1-3.6-1.4-5.3-1.4s-2.5.5-2.5,1.2c0,2.3,10.5.4,10.5,7.4s-3,6.4-8.8,6.4-6.4-.8-8.3-2Z"/>
</svg>